<!DOCTYPE svg PUBLIC "-//W3C//DTD SVG 20010904//EN" "http://www.w3.org/TR/2001/REC-SVG-20010904/DTD/svg10.dtd">
<svg version="1.0" xmlns="http://www.w3.org/2000/svg" width="1303px" height="1090px" viewBox="0 0 12000 10040" preserveAspectRatio="xMidYMid meet">
<g id="layer101" fill="#be61fb" stroke="none">
 <path d="M6900 10030 c-62 -19 -130 -51 -172 -79 -25 -17 -50 -31 -55 -31 -18 0 -148 -146 -186 -208 -72 -117 -80 -154 -81 -357 l0 -180 33 -77 c18 -42 46 -94 62 -114 16 -20 29 -43 29 -50 0 -8 50 -64 111 -126 117 -118 186 -219 215 -313 21 -69 44 -321 44 -495 0 -176 -17 -467 -32 -535 -28 -132 -104 -298 -173 -380 -23 -27 -44 -55 -46 -61 -2 -6 -27 -31 -54 -55 -28 -24 -59 -52 -70 -62 -11 -10 -44 -36 -73 -58 -29 -22 -55 -46 -58 -54 -3 -7 -28 -37 -55 -67 -27 -29 -49 -58 -49 -65 0 -6 -4 -13 -8 -15 -15 -5 -102 -145 -102 -162 0 -9 -8 -33 -19 -54 -10 -20 -29 -73 -42 -117 -21 -71 -24 -100 -23 -255 0 -185 3 -202 71 -385 23 -63 80 -163 105 -184 10 -8 18 -22 18 -29 0 -18 168 -182 206 -202 16 -8 31 -18 34 -21 14 -17 153 -90 186 -98 22 -6 71 -20 109 -32 62 -20 91 -23 255 -23 185 0 185 0 300 36 181 57 195 64 321 153 118 84 136 94 274 142 215 75 367 72 624 -12 59 -19 121 -35 139 -35 18 0 114 -27 214 -60 101 -33 190 -60 198 -60 8 0 174 -53 367 -119 406 -136 458 -163 569 -296 52 -62 64 -84 83 -152 27 -102 27 -148 -3 -257 -36 -131 -118 -245 -267 -373 -51 -43 -105 -90 -121 -106 -16 -15 -33 -27 -38 -27 -6 0 -10 -6 -10 -14 0 -8 -38 -46 -85 -86 -47 -40 -85 -76 -85 -81 0 -5 -6 -9 -12 -9 -7 0 -41 -26 -76 -58 -34 -31 -97 -86 -138 -122 -41 -36 -96 -85 -122 -109 -26 -24 -64 -55 -84 -69 -21 -13 -38 -28 -38 -33 0 -5 -27 -30 -59 -56 -109 -88 -476 -407 -512 -445 -20 -21 -40 -38 -46 -38 -6 0 -37 -27 -69 -60 -32 -33 -63 -60 -69 -60 -5 0 -34 -25 -64 -55 -30 -30 -58 -55 -62 -55 -5 0 -34 -25 -66 -56 -32 -31 -70 -62 -84 -68 -14 -6 -57 -39 -95 -73 -142 -126 -218 -172 -350 -212 -119 -35 -195 -42 -313 -26 -127 16 -317 7 -431 -20 -81 -20 -198 -73 -243 -111 -16 -13 -33 -24 -39 -24 -18 0 -158 -154 -175 -192 -9 -21 -20 -38 -24 -38 -9 0 -69 -137 -85 -195 -9 -32 -14 -106 -14 -204 0 -177 12 -238 68 -344 20 -38 45 -84 54 -102 22 -41 183 -205 201 -205 8 0 20 -7 28 -16 28 -34 166 -93 255 -108 164 -29 386 -15 495 32 66 29 188 108 238 156 177 168 254 367 266 686 9 250 77 412 241 574 43 42 81 76 85 76 15 0 79 62 79 76 0 7 10 19 22 25 12 6 53 41 92 76 105 96 99 90 266 233 85 73 163 143 173 156 10 13 24 24 30 24 7 0 41 27 77 60 156 143 180 164 197 173 10 6 34 26 53 46 19 20 111 101 205 181 93 80 194 168 226 195 86 76 159 140 206 178 24 20 55 49 69 66 14 17 31 31 38 31 7 0 21 9 31 20 10 11 23 20 28 20 5 0 31 19 57 43 128 115 264 201 390 245 70 24 86 26 255 25 99 0 200 -5 225 -10 64 -13 376 1 443 21 28 9 84 32 122 52 39 20 86 44 105 54 62 32 270 246 270 278 0 7 11 30 25 52 30 47 62 124 81 195 9 33 14 107 14 213 0 209 -11 252 -121 467 -12 22 -40 60 -63 85 -24 25 -46 53 -49 62 -3 9 -23 28 -44 42 -21 13 -52 38 -70 54 -56 52 -236 132 -356 156 -173 36 -356 14 -542 -65 -16 -7 -34 -11 -38 -10 -12 2 -39 -14 -124 -75 -89 -64 -184 -111 -293 -145 -64 -21 -96 -24 -215 -24 -151 0 -191 8 -335 67 -41 17 -86 31 -100 33 -54 4 -112 19 -272 71 -91 30 -173 54 -180 54 -16 0 -312 95 -343 110 -11 6 -81 30 -155 54 -159 51 -259 97 -309 140 -20 18 -55 44 -78 60 -24 16 -43 31 -43 35 0 3 -27 35 -60 70 -33 36 -60 69 -60 73 0 5 -11 24 -24 41 -38 53 -82 147 -110 238 -19 61 -36 96 -61 123 -19 21 -35 46 -35 55 0 9 -25 44 -55 76 -30 33 -57 68 -60 78 -4 9 -11 17 -16 17 -6 0 -8 4 -5 9 3 4 -34 37 -82 72 -203 149 -333 327 -391 534 -38 137 -49 236 -57 490 -10 316 16 566 70 670 9 17 16 37 16 45 0 21 103 146 165 201 66 58 95 87 95 96 0 3 18 29 39 58 45 60 96 173 117 260 16 71 18 209 3 289 -12 67 -69 203 -109 261 -38 55 -130 149 -162 166 -14 8 -57 31 -95 52 -106 59 -146 67 -317 66 -83 0 -162 -4 -176 -9z"/>
 <path d="M4725 9470 c-103 -22 -133 -35 -236 -102 -91 -60 -148 -116 -227 -221 -39 -52 -59 -93 -86 -176 -19 -59 -38 -131 -42 -159 -3 -29 -10 -52 -15 -52 -5 0 -9 -54 -9 -119 0 -213 -30 -321 -138 -491 -39 -61 -152 -173 -225 -223 -26 -17 -45 -37 -43 -44 3 -7 -9 -23 -25 -35 -17 -13 -43 -34 -57 -48 -22 -19 -253 -219 -427 -367 -41 -35 -342 -296 -558 -483 -98 -85 -200 -172 -225 -193 -26 -21 -55 -47 -64 -58 -9 -11 -38 -36 -65 -57 -26 -20 -64 -52 -83 -69 -142 -130 -205 -183 -220 -183 -10 0 -42 -27 -71 -60 -30 -33 -58 -60 -62 -60 -5 0 -29 -18 -55 -39 -55 -46 -226 -125 -320 -148 -109 -26 -283 -21 -417 12 -72 17 -111 23 -113 16 -2 -7 -37 -11 -91 -11 -96 0 -253 -29 -324 -59 -60 -26 -170 -95 -231 -145 -54 -44 -144 -149 -167 -193 -7 -15 -27 -50 -42 -77 -16 -27 -42 -89 -58 -137 -28 -83 -29 -96 -29 -258 0 -220 11 -263 124 -482 14 -25 43 -63 65 -84 23 -22 41 -45 41 -52 0 -7 23 -29 50 -49 28 -20 50 -40 50 -46 0 -5 4 -7 9 -4 5 3 11 0 14 -8 13 -34 300 -165 333 -152 7 3 14 0 16 -5 2 -6 55 -13 124 -16 143 -7 246 11 374 63 47 20 93 37 102 39 25 6 55 23 111 66 29 21 72 49 97 60 57 28 114 53 120 54 3 0 10 3 15 6 80 49 342 60 485 20 47 -12 90 -26 95 -31 18 -14 136 -49 148 -44 7 2 46 -7 87 -20 41 -14 78 -22 82 -20 4 3 8 1 8 -4 0 -6 24 -16 53 -23 28 -7 54 -14 57 -14 3 -1 18 -7 33 -13 15 -7 41 -14 58 -17 49 -9 638 -207 721 -244 81 -34 220 -136 287 -207 100 -108 168 -225 222 -381 22 -65 39 -97 56 -108 13 -9 32 -35 42 -58 10 -23 29 -54 43 -68 41 -44 95 -113 101 -131 3 -9 45 -44 94 -78 205 -145 319 -309 394 -565 15 -54 21 -111 26 -247 3 -98 10 -178 14 -178 5 0 9 -61 9 -135 0 -83 -4 -135 -10 -135 -6 0 -10 -48 -10 -123 0 -139 -12 -198 -66 -320 -32 -73 -107 -178 -144 -201 -42 -27 -114 -106 -163 -179 -100 -151 -133 -270 -125 -450 5 -108 9 -122 59 -257 31 -81 159 -238 221 -271 14 -8 57 -31 95 -52 105 -58 147 -67 314 -67 134 0 154 2 220 26 87 32 219 115 275 175 52 55 130 174 147 225 37 107 46 306 19 446 -10 53 -78 198 -93 198 -5 0 -9 7 -9 15 0 8 -4 15 -9 15 -5 0 -12 12 -16 27 -4 18 -36 52 -91 98 -89 74 -128 124 -187 240 -64 127 -70 173 -70 590 0 386 7 482 44 602 19 61 96 232 110 243 3 3 26 34 49 69 55 80 116 139 238 227 34 25 62 52 62 59 0 7 16 27 35 44 19 17 35 34 35 38 0 4 16 26 36 48 49 56 86 123 129 240 55 149 68 234 62 400 -7 156 -20 214 -85 362 -39 89 -67 136 -104 177 -10 11 -18 25 -18 31 0 15 -162 166 -200 186 -16 9 -35 21 -42 27 -35 29 -151 87 -218 109 -121 40 -198 53 -323 53 -117 0 -269 -22 -275 -41 -2 -5 -8 -7 -12 -4 -5 3 -52 -12 -104 -35 -52 -22 -99 -40 -104 -40 -5 0 -27 -13 -48 -28 -337 -240 -616 -294 -962 -186 -63 19 -132 36 -155 38 -23 1 -112 26 -197 55 -85 28 -172 54 -192 58 -21 3 -38 10 -38 15 0 6 -6 8 -14 5 -8 -3 -16 -2 -18 3 -2 5 -16 11 -33 14 -16 2 -31 5 -32 6 -2 2 -7 4 -13 5 -5 1 -12 4 -15 5 -3 1 -9 3 -14 4 -5 0 -13 4 -17 9 -4 4 -15 7 -24 7 -29 0 -144 41 -164 58 -10 10 -21 16 -25 16 -3 -1 -10 0 -16 1 -19 6 -70 18 -89 22 -30 6 -199 65 -231 81 -70 35 -177 116 -220 166 -68 79 -96 151 -102 264 -5 83 -2 102 22 175 52 152 158 283 342 419 52 38 98 81 104 95 5 13 13 22 18 19 5 -3 23 10 40 29 17 19 35 35 40 35 5 0 22 15 39 34 17 19 32 32 35 30 2 -3 16 9 30 26 14 16 30 30 35 30 15 0 53 46 45 55 -5 4 -2 5 5 1 8 -5 25 5 46 28 18 20 37 36 42 36 6 0 21 12 35 27 18 20 19 24 4 13 -18 -14 -19 -14 -6 2 7 10 17 15 22 13 4 -3 24 13 45 35 20 22 40 37 44 35 4 -2 34 24 66 58 32 34 87 84 122 110 34 27 62 52 62 57 0 5 12 16 28 24 15 8 53 39 84 69 32 30 59 53 61 51 1 -2 33 25 70 60 37 34 69 61 71 59 1 -2 19 14 39 34 20 21 64 63 98 93 35 30 79 71 99 90 19 20 48 44 63 53 15 10 47 38 70 62 23 25 46 45 52 45 5 0 37 27 69 60 33 33 65 60 72 60 6 0 45 30 85 66 207 186 344 250 554 261 89 4 129 1 209 -16 112 -24 130 -25 121 -11 -4 6 19 10 61 10 101 0 322 56 354 90 3 3 35 25 72 49 141 90 259 252 319 436 16 49 22 283 11 378 -11 87 -30 136 -113 288 -22 41 -160 183 -210 216 -55 37 -191 100 -229 107 -19 3 -55 10 -80 15 -72 16 -266 11 -355 -9z"/>
 </g>
<g id="layer102" fill="#61dbfb" stroke="none">
 <path d="M4725 9470 c-103 -22 -133 -35 -236 -102 -91 -60 -148 -116 -227 -221 -39 -52 -59 -93 -86 -176 -19 -59 -38 -131 -42 -159 -3 -29 -10 -52 -15 -52 -5 0 -9 -54 -9 -119 0 -215 -34 -334 -143 -501 -35 -55 -148 -164 -217 -211 -28 -19 -48 -39 -46 -46 3 -7 -9 -23 -25 -35 -17 -13 -43 -34 -57 -48 -15 -13 -110 -96 -212 -183 -102 -88 -196 -169 -210 -181 -21 -18 -254 -219 -604 -520 -33 -28 -80 -71 -105 -94 -25 -24 -59 -53 -75 -65 -26 -20 -71 -59 -142 -124 -14 -13 -27 -23 -29 -23 -2 0 -23 -18 -47 -40 -130 -119 -194 -172 -222 -184 -17 -7 -51 -36 -76 -64 -24 -29 -48 -52 -53 -52 -5 0 -27 -16 -49 -36 -22 -20 -68 -48 -101 -63 -34 -16 -82 -38 -107 -49 -133 -63 -348 -74 -535 -27 -72 17 -111 23 -113 16 -2 -7 -37 -11 -91 -11 -96 0 -253 -29 -324 -59 -60 -26 -170 -95 -231 -145 -54 -44 -144 -149 -167 -193 -7 -15 -27 -50 -42 -77 -16 -27 -42 -89 -58 -137 -28 -83 -29 -96 -29 -258 0 -220 11 -263 124 -482 14 -25 43 -63 65 -84 23 -22 41 -45 41 -52 0 -7 23 -29 50 -49 28 -20 50 -40 50 -46 0 -5 4 -7 9 -4 5 3 11 0 14 -8 13 -34 300 -165 333 -152 7 3 14 0 16 -6 4 -12 249 -24 275 -13 10 5 22 7 26 6 19 -4 168 40 229 68 38 16 68 28 68 25 0 -9 60 27 112 66 72 54 192 112 303 146 94 28 304 26 415 -5 47 -12 90 -26 95 -31 18 -14 136 -49 148 -44 7 2 46 -7 87 -20 41 -14 78 -22 82 -20 4 3 8 1 8 -5 0 -5 26 -15 58 -21 31 -7 69 -18 83 -26 15 -7 41 -16 58 -19 31 -5 273 -84 579 -189 140 -48 178 -66 265 -125 190 -127 307 -283 388 -518 21 -63 39 -97 55 -107 12 -9 34 -38 48 -65 13 -27 33 -58 43 -68 32 -32 90 -107 96 -125 3 -9 50 -48 104 -86 116 -83 181 -150 249 -252 71 -108 89 -150 131 -295 22 -76 27 -116 31 -262 2 -95 8 -173 13 -173 5 0 9 -61 9 -135 0 -74 -4 -135 -9 -135 -5 0 -11 -66 -13 -147 -3 -106 -10 -162 -22 -198 -30 -85 -82 -189 -105 -209 -11 -11 -21 -23 -21 -27 0 -8 -21 -29 -117 -114 -63 -56 -151 -187 -186 -275 -39 -101 -50 -177 -45 -303 5 -108 9 -122 59 -257 31 -81 159 -238 221 -271 14 -8 57 -31 95 -52 105 -58 147 -67 314 -67 134 0 154 2 220 26 87 32 219 115 275 175 52 55 130 174 147 225 37 107 46 306 19 446 -10 53 -78 198 -93 198 -5 0 -9 7 -9 15 0 8 -3 15 -8 15 -4 0 -13 13 -20 29 -7 16 -48 60 -90 96 -95 83 -113 105 -169 208 -79 147 -86 194 -86 622 0 385 7 482 44 602 19 60 93 225 111 248 36 45 68 89 68 95 0 12 146 151 174 165 37 20 106 78 106 91 0 6 10 19 21 30 12 10 42 46 67 79 25 33 49 62 52 65 27 23 105 205 138 323 26 96 24 377 -5 472 -41 136 -111 280 -165 339 -10 11 -18 25 -18 31 0 14 -163 166 -198 184 -15 7 -34 19 -42 26 -36 32 -151 88 -233 115 -132 44 -202 53 -356 47 -119 -4 -152 -9 -221 -34 -8 -3 -24 -7 -35 -8 -11 -2 -55 -19 -99 -39 -43 -20 -83 -36 -89 -36 -6 0 -62 -34 -126 -76 -63 -43 -139 -87 -167 -100 -239 -106 -467 -118 -722 -38 -63 19 -132 36 -155 38 -23 1 -113 26 -199 55 -86 29 -173 55 -192 58 -20 3 -36 10 -36 15 0 6 -6 8 -14 5 -8 -3 -16 -2 -18 3 -2 5 -16 11 -33 14 -16 2 -31 5 -32 6 -2 2 -7 4 -13 5 -5 1 -12 4 -15 5 -3 1 -9 3 -14 4 -5 0 -13 4 -17 9 -4 4 -14 7 -23 7 -26 0 -156 43 -163 54 -4 6 -11 11 -15 12 -4 0 -15 3 -23 7 -16 6 -63 18 -94 24 -30 6 -199 65 -231 81 -69 34 -176 115 -220 164 -67 77 -96 152 -102 266 -5 83 -2 102 22 175 52 152 158 283 342 419 52 38 98 81 104 95 5 13 13 22 18 19 5 -3 23 10 40 29 17 19 35 35 40 35 5 0 22 15 39 34 17 19 32 32 35 30 2 -3 16 9 30 26 14 16 30 30 35 30 15 0 53 46 45 55 -5 4 -2 5 5 1 6 -4 12 -2 12 4 0 6 4 9 9 5 5 -3 19 8 31 25 12 16 27 30 34 30 7 0 23 12 37 27 18 20 19 24 4 13 -18 -14 -19 -14 -6 2 7 10 17 15 22 13 4 -3 24 13 45 35 20 22 40 37 44 35 4 -2 34 24 66 58 32 34 87 84 122 110 34 27 62 52 62 57 0 5 12 16 28 24 15 8 53 39 84 69 32 30 59 53 61 51 1 -2 34 26 72 61 38 36 71 65 73 65 2 0 26 23 55 51 29 29 82 76 120 107 37 30 67 58 67 63 0 5 18 20 40 34 22 14 59 46 82 70 24 25 47 45 53 45 5 1 37 28 69 60 33 33 65 60 72 60 6 0 45 30 85 66 209 188 345 251 559 261 94 4 132 1 207 -16 104 -23 127 -26 118 -11 -4 6 18 10 60 10 100 0 324 57 355 90 3 3 35 25 72 49 143 91 263 257 320 441 13 41 17 317 6 404 -7 53 -38 126 -109 257 -22 41 -160 183 -210 216 -55 37 -191 100 -229 107 -19 3 -55 10 -80 15 -72 16 -266 11 -355 -9z"/>
 </g>

</svg>