<!DOCTYPE svg PUBLIC "-//W3C//DTD SVG 20010904//EN" "http://www.w3.org/TR/2001/REC-SVG-20010904/DTD/svg10.dtd">
<svg version="1.0" xmlns="http://www.w3.org/2000/svg" width="1274px" height="968px" viewBox="0 0 12000 9120" preserveAspectRatio="xMidYMid meet">
<g id="layer101" fill="#be61fb" stroke="none">
 <path d="M6795 8752 c-27 -11 -68 -28 -91 -40 -48 -24 -153 -122 -188 -174 -35 -53 -67 -160 -73 -249 -5 -73 10 -201 27 -224 4 -5 11 -21 15 -35 4 -14 50 -72 102 -130 52 -58 99 -114 103 -126 5 -11 15 -28 24 -36 8 -9 29 -44 45 -79 l31 -63 0 -520 c0 -453 -2 -530 -17 -591 -9 -38 -19 -72 -22 -75 -3 -3 -14 -22 -23 -43 -31 -65 -113 -161 -155 -180 -22 -9 -57 -33 -79 -52 -21 -19 -53 -42 -71 -50 -32 -16 -173 -150 -173 -166 0 -5 -9 -14 -20 -21 -11 -7 -20 -16 -20 -20 0 -4 -11 -19 -25 -34 -14 -15 -25 -33 -25 -41 0 -7 -13 -39 -29 -71 -16 -31 -39 -91 -52 -132 -49 -156 -25 -422 50 -570 16 -30 31 -66 34 -81 4 -14 20 -38 36 -55 17 -16 31 -31 31 -34 0 -9 148 -160 157 -160 4 0 16 -9 28 -20 98 -98 305 -164 515 -164 63 0 131 5 150 11 19 6 62 16 95 23 85 17 213 81 295 146 73 60 149 123 168 140 20 18 167 71 243 88 15 3 50 -3 82 -14 31 -11 67 -20 79 -20 13 0 88 -21 168 -46 264 -83 395 -122 434 -129 68 -12 369 -110 424 -139 15 -8 50 -17 77 -21 94 -14 196 -43 285 -81 92 -40 181 -111 243 -193 44 -59 47 -66 47 -124 -1 -57 -13 -134 -38 -230 -13 -51 -83 -158 -157 -239 -62 -68 -247 -241 -313 -291 -20 -16 -61 -52 -91 -80 -30 -29 -68 -62 -85 -75 -17 -12 -63 -54 -102 -92 -40 -39 -77 -70 -81 -70 -5 0 -43 -34 -84 -75 -40 -41 -79 -75 -84 -75 -6 0 -46 -36 -90 -80 -44 -44 -84 -80 -89 -80 -5 0 -44 -33 -87 -72 -146 -136 -231 -213 -299 -268 -37 -30 -114 -97 -171 -147 -57 -51 -120 -107 -139 -124 -19 -17 -52 -41 -72 -54 -48 -31 -97 -65 -123 -86 -11 -9 -56 -28 -100 -44 l-80 -28 -315 -1 -315 -1 -66 -32 c-81 -39 -218 -149 -258 -206 -16 -23 -37 -51 -48 -62 -23 -26 -55 -92 -84 -170 -17 -48 -23 -89 -26 -206 -5 -141 -4 -148 22 -215 15 -38 35 -80 44 -94 9 -14 26 -43 36 -64 26 -51 104 -137 176 -192 81 -62 167 -99 289 -124 94 -20 114 -21 192 -10 154 21 276 72 361 152 142 134 153 148 199 240 54 109 64 160 78 394 9 156 22 232 49 280 5 11 21 44 34 74 19 42 55 85 154 182 70 70 171 164 223 209 52 45 120 105 150 133 54 50 113 101 237 208 147 126 348 302 353 309 3 4 23 21 45 39 22 17 64 54 93 82 29 29 62 57 72 62 32 19 290 247 290 257 0 5 5 9 10 9 14 0 134 92 255 195 55 46 104 85 108 85 5 0 23 11 40 23 88 65 325 89 437 45 96 -38 419 -29 475 13 6 4 26 10 46 14 49 9 139 73 261 185 94 88 105 102 146 190 84 180 105 311 78 491 -35 233 -170 425 -386 549 -65 37 -108 54 -171 67 -107 21 -329 23 -419 4 -72 -16 -186 -68 -240 -111 -19 -15 -55 -38 -80 -51 -25 -12 -64 -35 -87 -51 -52 -35 -177 -68 -259 -68 -85 0 -218 18 -289 40 -174 52 -207 62 -242 66 -37 5 -172 44 -358 103 -144 46 -187 58 -230 66 -48 8 -379 118 -420 139 -17 9 -39 16 -50 16 -28 0 -71 39 -150 135 -69 84 -101 152 -115 245 -18 114 -62 207 -135 286 -14 15 -25 32 -25 38 0 16 -89 116 -104 116 -7 0 -25 14 -42 31 -16 17 -72 56 -124 86 -115 68 -150 99 -183 166 -43 89 -52 208 -52 722 0 503 3 531 57 640 49 96 72 132 101 155 15 12 27 26 27 31 0 5 29 43 64 84 100 114 100 113 100 310 1 168 1 171 -28 225 -30 57 -103 150 -118 150 -5 0 -22 16 -39 35 -17 19 -60 49 -97 67 -64 31 -73 32 -202 35 -112 3 -143 0 -185 -15z"/>
 <path d="M4885 8555 c-93 -15 -94 -15 -203 -67 -47 -23 -104 -59 -130 -85 -144 -137 -149 -144 -194 -236 -54 -110 -65 -168 -78 -394 -9 -163 -21 -226 -54 -288 -9 -16 -16 -35 -16 -42 0 -25 -48 -91 -111 -153 -166 -162 -248 -239 -304 -285 -33 -28 -89 -77 -125 -110 -36 -33 -92 -82 -124 -110 -130 -111 -252 -219 -275 -244 -13 -14 -43 -39 -66 -56 -40 -28 -110 -90 -266 -232 -37 -35 -72 -63 -76 -63 -5 0 -38 -28 -73 -63 -36 -35 -93 -84 -127 -111 -35 -26 -63 -51 -63 -55 0 -10 -115 -101 -127 -101 -4 0 -31 -21 -59 -47 -65 -62 -189 -163 -199 -163 -5 0 -22 -10 -39 -23 -17 -13 -68 -35 -113 -50 -117 -38 -239 -38 -332 0 -61 25 -77 27 -211 27 -113 1 -158 -3 -205 -18 -33 -10 -64 -22 -70 -26 -5 -5 -26 -11 -47 -15 -20 -4 -45 -13 -55 -21 -88 -66 -134 -105 -209 -176 -76 -72 -93 -95 -131 -176 -85 -177 -105 -304 -79 -489 25 -177 91 -300 231 -434 91 -87 224 -165 308 -179 191 -34 319 -35 447 -6 61 14 203 83 236 114 11 11 30 23 42 26 12 4 22 11 22 16 0 5 10 12 23 15 12 4 45 22 72 40 32 21 82 41 139 55 94 23 135 23 286 0 80 -12 80 -12 239 -60 57 -18 127 -36 155 -40 54 -9 268 -70 351 -100 87 -32 181 -60 201 -60 30 0 427 -133 514 -172 14 -6 48 -38 75 -71 28 -32 55 -64 60 -71 42 -46 95 -174 95 -230 0 -17 12 -58 25 -91 14 -33 25 -66 25 -72 0 -7 5 -13 10 -13 6 0 10 -5 10 -11 0 -7 15 -30 33 -53 19 -23 49 -64 68 -92 41 -62 208 -204 239 -204 4 0 10 -3 12 -7 2 -5 29 -21 62 -38 65 -34 96 -65 133 -138 39 -77 52 -264 53 -722 0 -451 -7 -532 -57 -630 -53 -106 -76 -142 -106 -165 -15 -12 -27 -26 -27 -32 0 -5 -26 -40 -58 -76 -112 -128 -106 -111 -107 -311 0 -175 0 -176 29 -231 30 -57 103 -150 118 -150 5 0 22 -16 39 -35 17 -19 60 -49 97 -67 67 -33 68 -33 217 -33 148 0 151 0 218 32 76 36 184 127 227 190 83 122 103 364 42 500 -18 40 -65 101 -140 182 -48 50 -119 156 -152 223 -19 40 -20 59 -20 564 0 554 2 586 50 689 32 71 122 176 172 204 26 14 59 35 72 46 14 11 55 42 93 69 37 28 95 81 128 119 33 37 72 82 88 100 15 17 27 38 27 47 0 8 13 41 29 72 59 113 76 189 75 338 -1 153 -24 270 -73 368 -15 31 -31 68 -34 82 -8 29 -162 201 -221 245 -22 17 -56 42 -75 58 -57 43 -107 64 -231 93 -200 49 -440 33 -600 -39 -60 -27 -166 -96 -225 -147 -126 -109 -188 -143 -316 -175 -72 -17 -79 -17 -118 -2 -23 10 -57 17 -76 17 -19 0 -49 6 -67 14 -43 18 -208 66 -229 66 -8 0 -19 4 -25 8 -9 8 -188 62 -334 101 -41 11 -162 49 -268 85 -106 36 -203 66 -215 66 -70 0 -283 81 -374 143 -43 28 -147 139 -170 180 -23 41 -13 167 23 293 25 89 101 201 204 304 49 48 321 291 419 374 14 12 50 44 81 71 31 28 186 165 345 305 159 140 333 293 386 340 53 47 109 96 125 109 56 47 269 236 308 274 21 20 43 37 47 37 4 0 45 28 91 62 64 48 103 68 173 91 101 32 165 36 433 22 184 -9 242 0 361 58 116 57 259 197 313 307 66 137 73 168 73 342 l0 156 -60 119 c-51 100 -71 130 -140 198 -106 107 -217 166 -366 195 -118 23 -116 23 -224 5z"/>
 </g>
<g id="layer102" fill="#61dafb" stroke="none">
 <path d="M4935 8563 c-139 -16 -306 -86 -383 -160 -143 -136 -150 -145 -192 -231 -53 -108 -68 -182 -79 -392 -9 -157 -29 -272 -52 -285 -5 -4 -9 -14 -9 -23 0 -32 -52 -116 -104 -168 -28 -28 -55 -56 -61 -62 -33 -35 -215 -204 -240 -223 -16 -12 -67 -57 -112 -98 -45 -42 -99 -90 -120 -108 -21 -18 -50 -43 -64 -55 -120 -107 -249 -220 -292 -255 -29 -24 -65 -55 -82 -71 -16 -15 -70 -62 -120 -104 -49 -42 -103 -90 -119 -107 -17 -17 -35 -31 -41 -31 -6 0 -40 -28 -75 -63 -36 -35 -93 -84 -127 -111 -35 -26 -63 -51 -63 -55 0 -10 -115 -101 -127 -101 -4 0 -31 -21 -59 -47 -65 -62 -189 -163 -199 -163 -5 0 -22 -10 -39 -23 -17 -13 -68 -35 -113 -50 -117 -38 -239 -38 -332 0 -61 25 -77 27 -211 27 -113 1 -158 -3 -205 -18 -33 -10 -64 -22 -70 -26 -5 -5 -26 -11 -47 -15 -20 -4 -45 -13 -55 -21 -178 -134 -287 -242 -330 -327 -50 -101 -92 -237 -99 -325 -10 -125 17 -282 66 -386 22 -47 44 -86 49 -86 5 0 14 -14 21 -30 20 -49 178 -189 273 -243 85 -48 110 -55 272 -78 87 -12 227 -5 315 15 65 16 192 78 236 116 17 15 53 37 80 50 27 13 67 36 89 51 23 16 77 37 129 49 94 23 135 23 286 0 80 -12 80 -12 239 -60 57 -18 127 -36 155 -40 54 -9 268 -70 351 -100 87 -32 181 -60 201 -60 10 0 80 -20 154 -44 203 -67 232 -77 267 -92 17 -8 45 -17 62 -20 17 -4 31 -10 31 -15 0 -5 6 -9 13 -9 13 0 18 -5 82 -85 22 -27 46 -57 54 -65 21 -22 58 -109 71 -165 6 -27 16 -69 21 -93 13 -62 67 -167 111 -217 21 -24 38 -48 38 -53 0 -16 100 -122 115 -122 8 0 24 -13 37 -29 13 -16 72 -57 131 -91 144 -84 189 -146 209 -288 15 -117 22 -933 9 -1050 -12 -102 -29 -172 -41 -172 -5 0 -15 -17 -24 -37 -27 -61 -60 -110 -89 -133 -15 -12 -27 -26 -27 -32 0 -5 -26 -40 -58 -76 -112 -128 -106 -111 -107 -311 0 -175 0 -176 29 -231 28 -54 103 -150 116 -150 4 0 25 -17 47 -38 22 -21 66 -51 99 -68 57 -28 63 -29 209 -29 148 0 151 0 218 32 75 35 184 127 226 188 38 57 72 167 78 256 6 83 -11 201 -33 234 -8 11 -14 25 -14 33 0 7 -43 61 -95 120 -98 111 -139 169 -181 255 l-24 51 0 522 c0 554 2 586 50 689 32 71 122 176 172 204 26 14 59 35 72 46 14 11 55 42 93 69 37 28 95 81 128 119 33 37 72 82 88 100 15 17 27 38 27 47 0 8 13 41 29 72 59 113 76 189 75 338 -1 151 -24 271 -70 362 -15 29 -32 67 -38 85 -14 41 -154 195 -229 253 -32 25 -71 55 -87 68 -40 32 -81 47 -211 79 -152 37 -318 38 -459 4 -147 -36 -221 -75 -370 -196 -148 -120 -180 -138 -311 -170 -72 -17 -79 -17 -118 -2 -23 10 -57 17 -77 17 -19 0 -44 5 -55 11 -18 9 -77 26 -204 60 -22 6 -49 15 -60 19 -23 11 -227 70 -335 99 -41 11 -162 49 -268 85 -106 36 -203 66 -215 66 -70 0 -283 81 -375 143 -44 29 -162 155 -174 185 -22 55 10 270 52 352 61 120 121 190 300 351 97 87 263 233 300 263 53 45 135 122 148 139 7 9 25 23 40 31 15 8 59 45 97 83 39 39 75 72 81 74 12 4 124 103 258 229 45 42 97 88 116 102 19 14 66 55 105 92 38 36 73 66 77 66 4 0 33 26 65 58 91 89 273 245 315 269 21 12 66 43 99 69 44 34 86 55 153 76 102 33 165 37 434 23 174 -9 239 0 339 46 89 42 263 185 263 218 0 6 9 16 19 23 24 17 75 113 104 198 19 56 22 86 22 222 l0 156 -60 119 c-51 100 -71 130 -140 198 -106 107 -217 166 -366 195 -102 20 -114 21 -174 13z"/>
 </g>

</svg>